<?xml version="1.0" encoding="UTF-8"?>
<svg id="SVGRoot" width="500px" height="200px" version="1.1" viewBox="0 0 500 200" xmlns="http://www.w3.org/2000/svg" xmlns:cc="http://creativecommons.org/ns#" xmlns:dc="http://purl.org/dc/elements/1.1/" xmlns:rdf="http://www.w3.org/1999/02/22-rdf-syntax-ns#">
 <metadata>
  <rdf:RDF>
   <cc:Work rdf:about="">
    <dc:format>image/svg+xml</dc:format>
    <dc:type rdf:resource="http://purl.org/dc/dcmitype/StillImage"/>
    <dc:title/>
   </cc:Work>
  </rdf:RDF>
 </metadata>
 <g fill="#ff3d3d">
  <path d="m112.37 141.43c1.6762 1.3434 3.188 1.3781 5.2446 1.3804 2.2084 2e-3 4.6933-0.42629 6.1169-1.496 2.4015-1.8045 1.4838-2.9433 2.5654-19.273-0.23785-9.6514 12.003-12.217 16.043-16.991 5.0554-5.2995 1.8335-13.869-6.5353-13.544-5.8394 0.37632-11.637 6.5107-9.8235 2.6013 3.9248-7.6806 10.037-7.0936 13.69-12.72 1.3831-2.2269 2.4103-7.2562 1.2433-10.499-2.6829-7.6203-12.096-10.28-23.528-4.7792-6.1988 3.425-7.5948 5.5996-10.419 9.5825-2.8244 3.9829-5.387 11.194-4.9667 18.54 0.50955 8.9059 6.4089 23.404 7.4677 28.516 1.6417 7.9248 0.12983 14.982 2.902 18.681z"/>
  <g stroke="#ff3d3d" stroke-linecap="round" stroke-linejoin="round" stroke-width="2.6943">
   <path d="m150.46 141.27v-74.234h44.596v14.773h-29.73v14.911h22.298v14.819h-22.298v14.911h29.73v14.819z" style="paint-order:stroke fill markers"/>
   <path d="m201.48 67.034v74.234h44.596v-14.773h-29.73v-14.911h22.298v-14.819h-22.298v-14.911h29.73v-14.819z" style="paint-order:stroke fill markers"/>
   <path d="m252.5 67.217v73.959h44.596v-14.773h-29.73v-59.185z" style="paint-order:stroke fill markers"/>
   <path d="m303.52 141.18h14.865v-73.959h-14.865z" style="paint-order:stroke fill markers"/>
   <path d="m362.34 66.621c-10.323 0-19.178 3.7163-26.519 11.057-7.3408 7.4326-11.011 16.287-11.011 26.565 0 10.369 3.6704 19.178 11.011 26.519 7.2949 7.2491 16.15 10.92 26.519 10.92 10.323 0 19.178-3.6246 26.519-10.92 7.3408-7.295 11.057-16.15 11.057-26.519 0-10.323-3.7163-19.178-11.057-26.565-7.3867-7.3408-16.242-11.057-26.519-11.057zm-0.0459 15.003c6.1938 0 11.47 2.2022 15.875 6.6067 4.4504 4.4504 6.6526 9.7725 6.6526 15.966 0 6.2397-2.2022 11.516-6.6526 15.92-4.4045 4.3586-9.7266 6.5609-15.875 6.5609-6.2397 0-11.516-2.2022-15.92-6.5609-4.4045-4.4045-6.6068-9.7266-6.6068-15.92 0-6.1479 2.2023-11.47 6.6068-15.92 4.3586-4.4045 9.6807-6.6526 15.92-6.6526z"/>
  </g>
  <g>
   <circle cx="109.16" cy="55.151" r="10.776" style="paint-order:stroke fill markers"/>
   <circle cx="349.46" cy="99.611" r="4.3852" style="paint-order:stroke fill markers"/>
   <circle cx="376.05" cy="99.742" r="4.3852" style="paint-order:stroke fill markers"/>
  </g>
  <g transform="matrix(1.3666 0 0 1.3666 311.51 163)">
   <path d="m33.017-38.928c0.29836 2.1623 2.1871 3.8304 4.4734 3.8304s4.1743-1.6681 4.4727-3.8304" fill-opacity="0" stroke="#ff3d3d" stroke-linecap="round" stroke-miterlimit="10" stroke-width="2.5565"/>
  </g>
 </g>
</svg>
